<?xml version="1.0" encoding="UTF-8"?>
<svg width="80px" height="80px" viewBox="0 0 80 80" version="1.1" xmlns="http://www.w3.org/2000/svg" xmlns:xlink="http://www.w3.org/1999/xlink">
    <title>Group 7</title>
    <g id="Page-1" stroke="none" stroke-width="1" fill="none" fill-rule="evenodd">
        <g id="Events-Pass-Landing-Page" transform="translate(-1307.000000, -3724.000000)">
            <g id="Group-7" transform="translate(1307.000000, 3724.000000)">
                <rect id="Rectangle-Copy-4" fill="#FFFFFF" x="0" y="0" width="80" height="80" rx="30"></rect>
                <g id="noun_reward_2946917" transform="translate(25.000000, 21.000000)" fill="#EE734B" fill-rule="nonzero">
                    <path d="M29.978776,13.0201238 C29.9747396,13.0160991 29.9707031,13.0080495 29.9626302,13.0040248 C29.9545573,13 29.9505208,12.9919505 29.9464844,12.9879257 C29.5266927,12.5693498 29.106901,12.150774 28.6871094,11.7321981 C28.525651,11.5712074 28.3682292,11.4142415 28.2067708,11.2572755 C27.7990885,10.8427245 27.5286458,10.3074303 27.460026,9.72786378 C27.4277344,9.47027864 27.4438802,9.20464396 27.4438802,8.95108359 L27.4438802,7.79597523 C27.4438802,7.02321981 27.4640625,6.28266254 27.1492188,5.55417957 C26.6971354,4.51176471 25.6960938,3.73095975 24.5658854,3.55789474 C23.9119792,3.46130031 23.2257813,3.50959752 22.5678385,3.50959752 C21.841276,3.50959752 21.0703125,3.58606811 20.396224,3.25603715 C19.7625,2.94613003 19.2861979,2.35851393 18.79375,1.87151703 C18.3013021,1.38049536 17.8209635,0.808978328 17.2154948,0.458823529 C16.1660156,-0.148916409 14.821875,-0.148916409 13.7723958,0.458823529 C13.1709635,0.80495356 12.6946615,1.37244582 12.20625,1.85944272 C11.721875,2.34643963 11.2415365,2.93405573 10.6199219,3.24396285 C9.94179688,3.58606811 9.17486979,3.50959752 8.44023438,3.50959752 C7.77825521,3.50959752 7.08398438,3.45727554 6.42604167,3.55789474 C5.29986979,3.73095975 4.29479167,4.50773994 3.84270833,5.55417957 C3.52786458,6.28266254 3.54804688,7.02321981 3.54804688,7.79597523 L3.54804688,8.95108359 C3.54804688,9.20866873 3.56419271,9.47430341 3.53190104,9.72786378 C3.46328125,10.3034056 3.18880208,10.8427245 2.78111979,11.2532508 C2.62369792,11.4142415 2.46223958,11.5712074 2.30078125,11.7321981 C1.87695313,12.1547988 1.44908854,12.5733746 1.02929688,13 C0.173567708,13.8693498 -0.173567708,15.1371517 0.1453125,16.3164087 C0.302734375,16.8919505 0.613541667,17.4111455 1.02929688,17.8377709 C1.18268229,17.9947368 1.34010417,18.147678 1.49752604,18.3006192 C1.92539063,18.7272446 2.35729167,19.1498452 2.78111979,19.5845201 C3.20091146,20.0111455 3.4875,20.574613 3.53997396,21.1743034 C3.56015625,21.4198142 3.55208333,21.6733746 3.55208333,21.9188854 C3.55208333,22.5708978 3.54804688,23.2229102 3.55208333,23.8749226 C3.55611979,24.9575851 4.04856771,25.9718266 4.91640625,26.6278638 C5.36445313,26.969969 5.89726563,27.1993808 6.45429688,27.2798762 C6.74895833,27.3241486 7.03554688,27.3241486 7.33424479,27.3241486 C8.01640625,27.3241486 8.70260417,27.3241486 9.38476563,27.3241486 C9.82473958,27.3241486 10.2566406,27.404644 10.6481771,27.6058824 C10.9670573,27.7708978 11.2213542,27.9922601 11.4716146,28.2417957 C11.9640625,28.7328173 12.4565104,29.223839 12.9489583,29.7148607 C13.6513021,30.4151703 14.5393229,30.85387 15.552474,30.8377709 C16.5454427,30.8176471 17.385026,30.3708978 18.0752604,29.6826625 C18.5636719,29.1956656 19.0561198,28.704644 19.5445313,28.2176471 C19.8109375,27.9520124 20.0854167,27.7266254 20.4285156,27.5616099 C20.8079427,27.3804954 21.2196615,27.3201238 21.6313802,27.3201238 L23.7020833,27.3201238 C24.0088542,27.3201238 24.3115885,27.3160991 24.6183594,27.2637771 C25.1915365,27.1671827 25.7283854,26.9095975 26.1764323,26.5473684 C26.9917969,25.895356 27.4358073,24.8891641 27.4358073,23.8588235 C27.4358073,23.1947368 27.4358073,22.5306502 27.4358073,21.8705882 C27.4358073,21.6130031 27.4196615,21.3433437 27.4559896,21.0857585 C27.5326823,20.5142415 27.803125,19.9869969 28.2067708,19.5764706 C28.6427083,19.1337461 29.0867188,18.6990712 29.5266927,18.2603715 C29.6760417,18.1114551 29.8294271,17.9625387 29.978776,17.8095975 C30.4066406,17.3749226 30.7174479,16.8235294 30.8627604,16.2318885 C31.149349,15.0848297 30.8022135,13.8693498 29.978776,13.0201238 Z M21.8654948,16.6907121 C21.3286458,19.3309598 19.1691406,21.3876161 16.5050781,21.8142415 C16.1740885,21.8665635 15.835026,21.8866873 15.5,21.8907121 C15.5080729,21.8907121 15.5161458,21.8907121 15.5201823,21.8907121 C15.5121094,21.8907121 15.5040365,21.8907121 15.5,21.8907121 C12.8157552,21.8786378 10.321224,20.1842105 9.40494792,17.6526316 C8.94075521,16.3687307 8.88424479,14.9600619 9.25559896,13.6479876 C9.61888021,12.376161 10.3736979,11.2452012 11.3989583,10.4040248 C13.4938802,8.68142415 16.5575521,8.48823529 18.8704427,9.88885449 C21.171224,11.2814241 22.4063802,14.0504644 21.8654948,16.6907121 Z" id="Shape"></path>
                    <path d="M22.2005208,28.5235294 L22.2005208,38.5572755 C22.2005208,38.7947368 21.9421875,39.0482972 21.6959635,38.947678 C21.4335938,38.8390093 21.1752604,38.7343653 20.9169271,38.6297214 C19.1126302,37.8972136 17.3123698,37.1767802 15.5080729,36.4321981 C15.544401,36.4160991 15.5766927,36.4 15.6130208,36.3879257 L15.3990885,36.3879257 C15.4354167,36.4040248 15.4717448,36.4201238 15.5121094,36.4321981 C15.2860677,36.5328173 15.060026,36.6133127 14.8339844,36.7018576 C12.9933594,37.4504644 11.1567708,38.1990712 9.31614583,38.947678 C9.06588542,39.0482972 8.81158854,38.7947368 8.81158854,38.5572755 L8.81158854,28.5195046 C8.94479167,28.5195046 9.08203125,28.5195046 9.21523438,28.5195046 C9.3484375,28.5235294 9.48567708,28.5275542 9.61888021,28.5396285 C9.63098958,28.5396285 9.6390625,28.5396285 9.65117188,28.5396285 C9.78033854,28.5678019 9.90950521,28.6 10.0346354,28.6442724 C10.1476563,28.7006192 10.2566406,28.7650155 10.3615885,28.8374613 C10.7490885,29.171517 11.096224,29.5659443 11.4554688,29.9241486 C11.9802083,30.4473684 12.4888021,31.0108359 13.130599,31.3972136 C13.7966146,31.7996904 14.5473958,31.996904 15.3183594,32.0452012 C16.0973958,32.0934985 16.8401042,31.8922601 17.5424479,31.5783282 C18.2690104,31.2563467 18.8139323,30.6767802 19.3628906,30.1294118 C19.7867188,29.7027864 20.1984375,29.2359133 20.6585938,28.8414861 C20.7635417,28.7690402 20.8765625,28.704644 20.9895833,28.6482972 C21.1147135,28.6080495 21.2398438,28.5718266 21.3690104,28.5436533 C21.3811198,28.5436533 21.3932292,28.5436533 21.4013021,28.5396285 C21.5345052,28.5315789 21.6717448,28.5275542 21.8049479,28.5235294 C21.9300781,28.5195046 22.0673177,28.5195046 22.2005208,28.5235294 Z" id="Path"></path>
                </g>
            </g>
        </g>
    </g>
</svg>