<?xml version="1.0" encoding="UTF-8"?>
<svg width="80px" height="80px" viewBox="0 0 80 80" version="1.1" xmlns="http://www.w3.org/2000/svg" xmlns:xlink="http://www.w3.org/1999/xlink">
    <title>Group 8</title>
    <g id="Page-1" stroke="none" stroke-width="1" fill="none" fill-rule="evenodd">
        <g id="Events-Pass-Landing-Page" transform="translate(-896.000000, -3724.000000)">
            <g id="Group-8" transform="translate(896.000000, 3724.000000)">
                <rect id="Rectangle-Copy" fill="#FFFFFF" x="0" y="0" width="80" height="80" rx="30"></rect>
                <g id="noun_promotion_1379197" transform="translate(40.000000, 40.500000) rotate(-24.000000) translate(-40.000000, -40.500000) translate(21.000000, 24.000000)" fill="#EE734B" fill-rule="nonzero">
                    <g id="Group">
                        <path d="M0.0363829787,14.0853659 L0.0363829787,15.4536585 C0.0454703014,18.8329384 2.6771717,21.6302856 6.06382979,21.8604878 L6.06382979,31.4707317 C6.06382979,32.1375145 6.6068036,32.6780488 7.27659574,32.6780488 L11.5697872,32.6780488 C12.2395794,32.6780488 12.7825532,32.1375145 12.7825532,31.4707317 L12.7825532,21.8806098 L13.4859574,21.8806098 L13.4859574,7.64634146 L6.50446809,7.64634146 C2.93224332,7.64634146 0.0363829787,10.5291909 0.0363829787,14.0853659 Z" id="Path"></path>
                        <path d="M37.4178723,0.523170732 C37.0821726,0.295379814 36.6541988,0.250055245 36.2778723,0.402439024 L16.3197872,8.85365854 L16.3197872,20.645122 L36.2778723,29.0963415 C36.6522499,29.2541923 37.0811742,29.2147881 37.4202113,28.9913977 C37.7592484,28.7680073 37.9632858,28.3903551 37.963617,27.9856098 L37.963617,1.52926829 C37.962871,1.12396944 37.7578923,0.746084795 37.4178723,0.523170732 Z" id="Path"></path>
                    </g>
                </g>
            </g>
        </g>
    </g>
</svg>