<?xml version="1.0" encoding="UTF-8"?>
<svg width="80px" height="80px" viewBox="0 0 80 80" version="1.1" xmlns="http://www.w3.org/2000/svg" xmlns:xlink="http://www.w3.org/1999/xlink">
    <title>Group 9</title>
    <g id="Page-1" stroke="none" stroke-width="1" fill="none" fill-rule="evenodd">
        <g id="Events-Pass-Landing-Page" transform="translate(-479.000000, -3724.000000)">
            <g id="Group-9" transform="translate(479.000000, 3724.000000)">
                <rect id="Rectangle" fill="#FFFFFF" x="0" y="0" width="80" height="80" rx="30"></rect>
                <g id="noun_Sign-Up_6478" transform="translate(25.000000, 22.000000)" fill="#EE734B" fill-rule="nonzero">
                    <path d="M34.3103409,23.4659091 L28.2386364,23.4659091 L28.2386364,17.2072727 C28.2386364,17.1535795 28.0330114,17.1022727 27.9801136,17.1022727 L23.5076705,17.1022727 C23.4551705,17.1022727 23.4659091,17.1535795 23.4659091,17.2072727 L23.4659091,23.4659091 L17.1770455,23.4659091 C17.1245455,23.4659091 17.1022727,23.4853977 17.1022727,23.5382955 L17.1022727,28.0099432 C17.1022727,28.0628409 17.1245455,28.2386364 17.1770455,28.2386364 L23.4659091,28.2386364 L23.4659091,34.3409659 C23.4659091,34.3938636 23.4551705,34.6022727 23.5076705,34.6022727 L27.9801136,34.6022727 C28.0334091,34.6022727 28.2386364,34.3938636 28.2386364,34.3409659 L28.2386364,28.2386364 L34.3103409,28.2386364 C34.3640341,28.2386364 34.6022727,28.0628409 34.6022727,28.0099432 L34.6022727,23.5382955 C34.6022727,23.4853977 34.3640341,23.4659091 34.3103409,23.4659091 Z" id="Path"></path>
                    <path d="M17.1770455,29.0340909 C16.6858523,29.0340909 16.3068182,28.5011364 16.3068182,28.0099432 L16.3068182,23.5382955 C16.3068182,23.0467045 16.6858523,22.6704545 17.1770455,22.6704545 L22.6704545,22.6704545 L22.6704545,18.7946023 C21.1125568,16.9499432 19.03125,15.5467614 16.6421023,14.8213068 C19.0380114,13.5040341 20.6623295,10.9701136 20.6623295,8.05914773 C20.6623295,3.79272727 17.1770455,0.334488636 12.8788068,0.334488636 C8.58056818,0.334488636 5.09607955,3.793125 5.09607955,8.05914773 C5.09607955,10.9705114 6.71960227,13.5044318 9.11670455,14.8213068 C3.92795455,16.3963068 0.159090909,21.1407955 0.159090909,26.7515341 C0.159090909,33.6477273 5.85375,34.8345455 12.8784091,34.8345455 C16.8171023,34.8345455 20.3369886,34.4610795 22.6700568,32.9178977 L22.6700568,29.0340909 L17.1770455,29.0340909 Z" id="Path"></path>
                </g>
            </g>
        </g>
    </g>
</svg>