<?xml version="1.0" encoding="UTF-8"?>
<svg width="106px" height="106px" viewBox="0 0 106 106" version="1.1" xmlns="http://www.w3.org/2000/svg" xmlns:xlink="http://www.w3.org/1999/xlink">
    <title>Graphic</title>
    <g id="Page-1" stroke="none" stroke-width="1" fill="none" fill-rule="evenodd">
        <g id="Events-Pass-Landing-Page" transform="translate(-466.000000, -4497.000000)" fill="#000000">
            <g id="Graphic" transform="translate(519.000000, 4550.000000) rotate(166.000000) translate(-519.000000, -4550.000000) translate(476.000000, 4507.000000)">
                <g id="Group-12-Copy-2" transform="translate(43.297803, 43.221700) rotate(-171.000000) translate(-43.297803, -43.221700) translate(6.297803, 6.221700)">
                    <polygon id="Fill-1" points="0 42.800603 6.03535592 48.8380297 7.5139094 50.3165832 16.4887705 59.2904088 17.9652531 60.7668915 20.9047583 63.7053612 20.9047583 60.7492897 19.4438066 59.2904088 17.9652531 57.8118553 8.99142748 48.8380297 7.5139094 47.3594762 0 39.8455668"></polygon>
                    <polygon id="Fill-2" points="0 52.2608603 7.02830605 59.2902018 7.5139094 59.7747697 17.4806852 69.7415455 17.9652531 70.2271488 20.9047583 73.1656186 20.9047583 71.2004263 19.4438066 69.7415455 17.9652531 68.2650628 8.99142748 59.2902018 7.5139094 57.8116483 0 50.2977389"></polygon>
                    <polygon id="Fill-3" points="0 32.3488451 6.03535592 38.3852364 7.5139094 39.8637899 16.4887705 48.8376155 17.9652531 50.316169 20.9047583 53.2536033 20.9047583 50.2975318 19.4438066 48.8376155 17.9652531 47.359062 8.99142748 38.3852364 7.5139094 36.9077183 0 29.3917381"></polygon>
                    <polygon id="Fill-4" points="0 21.8970872 6.03535592 27.9324431 7.5139094 29.4109966 16.4887705 38.3858576 17.9652531 39.8633757 20.9047583 42.80081 20.9047583 39.8457739 19.4438066 38.3858576 17.9652531 36.9073041 8.99142748 27.9324431 7.5139094 26.454925 0 18.9399802"></polygon>
                    <polygon id="Fill-5" points="0 11.4443974 6.03535592 17.4807887 7.5139094 18.9593422 16.4887705 27.9331679 17.9652531 29.410686 20.9047583 32.3491557 20.9047583 29.3920487 19.4438066 27.9331679 17.9652531 26.4546144 8.99142748 17.4807887 7.5139094 16.0032707 0 8.48832585"></polygon>
                    <polygon id="Fill-6" points="0 0.00020708032 0 0.992121812 6.03535592 7.02851313 7.5139094 8.50706662 16.4887705 17.4808923 17.9652531 18.9594458 20.9047583 21.8968801 20.9047583 20.9049654 22.8668443 20.9049654 19.4438066 17.4808923 17.9652531 16.0033742 8.99142748 7.02851313 7.5139094 5.54995965 1.96208603 0.00020708032"></polygon>
                    <polygon id="Fill-7" points="9.4583936 0.00020708032 16.4887705 7.02851313 17.9652531 8.50706662 26.9401142 17.4808923 28.4176323 18.9594458 30.3641873 20.9049654 33.3192234 20.9049654 29.8961858 17.4808923 28.4176323 16.0033742 19.4438066 7.02851313 17.9652531 5.54995965 12.4155006 0.00020708032"></polygon>
                    <polygon id="Fill-8" points="19.9110834 0.00020708032 26.9404248 7.02851313 28.4169075 8.50706662 37.3917686 17.4808923 38.870322 18.9594458 40.816877 20.9049654 43.7708778 20.9049654 40.3478401 17.4808923 38.870322 16.0033742 29.895461 7.02851313 28.4169075 5.54995965 22.8671549 0.00020708032"></polygon>
                    <polygon id="Fill-9" points="30.3637731 0.00020708032 37.3920792 7.02851313 38.8695973 8.50706662 47.8444583 17.4808923 49.3219764 18.9594458 51.267496 20.9049654 54.2235676 20.9049654 50.8005299 17.4808923 49.3219764 16.0033742 40.3481507 7.02851313 38.8695973 5.54995965 33.3198447 0.00020708032"></polygon>
                    <polygon id="Fill-10" points="40.8164629 0.00020708032 47.8447689 7.02851313 49.3212516 8.50706662 58.2961127 17.4808923 59.7746662 18.9594458 61.7201858 20.9049654 64.6762573 20.9049654 61.2521842 17.4808923 59.7746662 16.0033742 50.8008405 7.02851313 49.3212516 5.54995965 43.771499 0.00020708032"></polygon>
                    <polygon id="Fill-11" points="51.2672889 0.00020708032 58.2966304 7.02851313 59.7741485 8.50706662 68.7490095 17.4808923 70.2265276 18.9594458 72.1720472 20.9049654 73.1649973 20.9049654 70.2265276 17.9654602 69.7419596 17.4808923 59.7741485 7.51411648 59.2895805 7.02851313 52.2602391 0.00020708032"></polygon>
                </g>
            </g>
        </g>
    </g>
</svg>