<?xml version="1.0" encoding="UTF-8"?>
<svg width="29px" height="27px" viewBox="0 0 29 27" version="1.1" xmlns="http://www.w3.org/2000/svg" xmlns:xlink="http://www.w3.org/1999/xlink">
    <title>Graphics</title>
    <defs>
        <polygon id="path-1" points="0.0615521739 0.0526073563 0.725856522 0.0526073563 0.725856522 0.712643678 0.0615521739 0.712643678"></polygon>
        <polygon id="path-3" points="0.00589695652 0.0155356322 0.583253478 0.0155356322 0.583253478 0.589128276 0.00589695652 0.589128276"></polygon>
        <polygon id="path-5" points="0 0.0648933333 0.253597826 0.0648933333 0.253597826 0.680047356 0 0.680047356"></polygon>
        <polygon id="path-7" points="0 0.0712643678 6.56482412 0.0712643678 6.56482412 5.77241379 0 5.77241379"></polygon>
    </defs>
    <g id="Page-1" stroke="none" stroke-width="1" fill="none" fill-rule="evenodd">
        <g id="Events-Pass-Landing-Page" transform="translate(-769.000000, -868.000000)">
            <g id="Graphics" transform="translate(783.500000, 881.187480) scale(-1, 1) translate(-783.500000, -881.187480) translate(769.000000, 868.187480)">
                <g id="Group-318-Copy">
                    <path d="M0.38985913,23.9486331 C0.206350435,23.9486331 0.0577069565,24.0964354 0.0577069565,24.2785871 C0.0577069565,24.4610239 0.206350435,24.6086837 0.38985913,24.6086837 C0.573367826,24.6086837 0.722154783,24.4610239 0.722154783,24.2785871 C0.722154783,24.0964354 0.573367826,23.9486331 0.38985913,23.9486331" id="Fill-1" fill="#231B3B"></path>
                    <path d="M0.944646522,22.5361591 C0.761137826,22.5361591 0.61235087,22.6839614 0.61235087,22.8661131 C0.61235087,23.0485499 0.761137826,23.1962097 0.944646522,23.1962097 C1.12815522,23.1962097 1.2767987,23.0485499 1.2767987,22.8661131 C1.2767987,22.6839614 1.12815522,22.5361591 0.944646522,22.5361591" id="Fill-3" fill="#231B3B"></path>
                    <path d="M2.39666087,23.8687457 C2.21315217,23.8687457 2.06436522,24.016548 2.06436522,24.1986998 C2.06436522,24.3811366 2.21315217,24.5287963 2.39666087,24.5287963 C2.58016957,24.5287963 2.72881304,24.3811366 2.72881304,24.1986998 C2.72881304,24.016548 2.58016957,23.8687457 2.39666087,23.8687457" id="Fill-5" fill="#231B3B"></path>
                    <path d="M2.44429565,22.3117903 C2.26078696,22.3117903 2.112,22.4594501 2.112,22.6417444 C2.112,22.8240386 2.26078696,22.9718409 2.44429565,22.9718409 C2.62780435,22.9718409 2.77644783,22.8240386 2.77644783,22.6417444 C2.77644783,22.4594501 2.62780435,22.3117903 2.44429565,22.3117903" id="Fill-7" fill="#231B3B"></path>
                    <path d="M3.92034261,22.4634979 C3.73683391,22.4634979 3.58819043,22.6113002 3.58819043,22.7935945 C3.58819043,22.9758887 3.73683391,23.123691 3.92034261,23.123691 C4.1038513,23.123691 4.25263826,22.9758887 4.25263826,22.7935945 C4.25263826,22.6113002 4.1038513,22.4634979 3.92034261,22.4634979" id="Fill-9" fill="#231B3B"></path>
                    <path d="M4.28730261,23.9601922 C4.10379391,23.9601922 3.95515043,24.1079945 3.95515043,24.2901462 C3.95515043,24.472583 4.10379391,24.6202428 4.28730261,24.6202428 C4.4708113,24.6202428 4.61945478,24.472583 4.61945478,24.2901462 C4.61945478,24.1079945 4.4708113,23.9601922 4.28730261,23.9601922" id="Fill-11" fill="#231B3B"></path>
                    <path d="M6.09689348,23.9034087 C5.91338478,23.9034087 5.76459783,24.051211 5.76459783,24.2333628 C5.76459783,24.4157995 5.91338478,24.5634593 6.09689348,24.5634593 C6.28040217,24.5634593 6.42904565,24.4157995 6.42904565,24.2333628 C6.42904565,24.051211 6.28040217,23.9034087 6.09689348,23.9034087" id="Fill-13" fill="#231B3B"></path>
                    <path d="M7.85850522,23.9036795 C7.67499652,23.9036795 7.52635304,24.0513393 7.52635304,24.2336336 C7.52635304,24.4160703 7.67499652,24.5637301 7.85850522,24.5637301 C8.04201391,24.5637301 8.19080087,24.4160703 8.19080087,24.2336336 C8.19080087,24.0513393 8.04201391,23.9036795 7.85850522,23.9036795" id="Fill-15" fill="#231B3B"></path>
                    <path d="M9.57351522,23.9123168 C9.39000652,23.9123168 9.24136304,24.0601191 9.24136304,24.2422708 C9.24136304,24.4247076 9.39000652,24.5723674 9.57351522,24.5723674 C9.75702391,24.5723674 9.90581087,24.4247076 9.90581087,24.2422708 C9.90581087,24.0601191 9.75702391,23.9123168 9.57351522,23.9123168" id="Fill-17" fill="#231B3B"></path>
                    <path d="M8.8149313,22.4889678 C8.63142261,22.4889678 8.48277913,22.6366276 8.48277913,22.8189218 C8.48277913,23.0013586 8.63142261,23.1490184 8.8149313,23.1490184 C8.99844,23.1490184 9.14722696,23.0013586 9.14722696,22.8189218 C9.14722696,22.6366276 8.99844,22.4889678 8.8149313,22.4889678" id="Fill-19" fill="#231B3B"></path>
                    <path d="M7.13088391,22.4834092 C6.94737522,22.4834092 6.79873174,22.631069 6.79873174,22.8133632 C6.79873174,22.9956575 6.94737522,23.1434598 7.13088391,23.1434598 C7.31439261,23.1434598 7.46317957,22.9956575 7.46317957,22.8133632 C7.46317957,22.631069 7.31439261,22.4834092 7.13088391,22.4834092" id="Fill-21" fill="#231B3B"></path>
                    <path d="M5.49665217,22.466149 C5.31314348,22.466149 5.1645,22.6139513 5.1645,22.796103 C5.1645,22.9785398 5.31314348,23.1261995 5.49665217,23.1261995 C5.68016087,23.1261995 5.82894783,22.9785398 5.82894783,22.796103 C5.82894783,22.6139513 5.68016087,22.466149 5.49665217,22.466149" id="Fill-23" fill="#231B3B"></path>
                    <path d="M4.86724174,20.922691 C4.68373304,20.922691 4.53508957,21.0703508 4.53508957,21.2526451 C4.53508957,21.4349393 4.68373304,21.5827416 4.86724174,21.5827416 C5.05075043,21.5827416 5.19953739,21.4349393 5.19953739,21.2526451 C5.19953739,21.0703508 5.05075043,20.922691 4.86724174,20.922691" id="Fill-25" fill="#231B3B"></path>
                    <path d="M6.4663213,20.9654211 C6.28281261,20.9654211 6.13416913,21.1132234 6.13416913,21.2955177 C6.13416913,21.477812 6.28281261,21.6256143 6.4663213,21.6256143 C6.64983,21.6256143 6.79861696,21.477812 6.79861696,21.2955177 C6.79861696,21.1132234 6.64983,20.9654211 6.4663213,20.9654211" id="Fill-27" fill="#231B3B"></path>
                    <path d="M8.07204391,21.0304143 C7.88853522,21.0304143 7.73974826,21.1782166 7.73974826,21.3603683 C7.73974826,21.5428051 7.88853522,21.6906074 8.07204391,21.6906074 C8.25555261,21.6906074 8.40419609,21.5428051 8.40419609,21.3603683 C8.40419609,21.1782166 8.25555261,21.0304143 8.07204391,21.0304143" id="Fill-29" fill="#231B3B"></path>
                    <path d="M8.99308826,19.6029034 C8.80957957,19.6029034 8.66079261,19.7507057 8.66079261,19.933 C8.66079261,20.1152943 8.80957957,20.2630966 8.99308826,20.2630966 C9.17659696,20.2630966 9.32524043,20.1152943 9.32524043,19.933 C9.32524043,19.7507057 9.17659696,19.6029034 8.99308826,19.6029034" id="Fill-31" fill="#231B3B"></path>
                    <path d="M7.3854,19.4946101 C7.2018913,19.4946101 7.05310435,19.6424124 7.05310435,19.8245641 C7.05310435,20.0070009 7.2018913,20.1546607 7.3854,20.1546607 C7.5689087,20.1546607 7.71755217,20.0070009 7.71755217,19.8245641 C7.71755217,19.6424124 7.5689087,19.4946101 7.3854,19.4946101" id="Fill-33" fill="#231B3B"></path>
                    <path d="M5.7928487,19.429332 C5.60934,19.429332 5.46069652,19.5771343 5.46069652,19.759286 C5.46069652,19.9417228 5.60934,20.0895251 5.7928487,20.0895251 C5.97635739,20.0895251 6.12514435,19.9417228 6.12514435,19.759286 C6.12514435,19.5771343 5.97635739,19.429332 5.7928487,19.429332" id="Fill-35" fill="#231B3B"></path>
                    <path d="M4.16596304,19.3980184 C3.98245435,19.3980184 3.83366739,19.5456782 3.83366739,19.7279724 C3.83366739,19.9102667 3.98245435,20.058069 4.16596304,20.058069 C4.34947174,20.058069 4.49811522,19.9102667 4.49811522,19.7279724 C4.49811522,19.5456782 4.34947174,19.3980184 4.16596304,19.3980184" id="Fill-37" fill="#231B3B"></path>
                    <path d="M5.13094043,17.9099614 C4.94743174,17.9099614 4.79878826,18.0576211 4.79878826,18.2399154 C4.79878826,18.4222097 4.94743174,18.570012 5.13094043,18.570012 C5.31444913,18.570012 5.46323609,18.4222097 5.46323609,18.2399154 C5.46323609,18.0576211 5.31444913,17.9099614 5.13094043,17.9099614" id="Fill-39" fill="#231B3B"></path>
                    <path d="M6.72706435,17.9465628 C6.54355565,17.9465628 6.39491217,18.0943651 6.39491217,18.2765168 C6.39491217,18.4589536 6.54355565,18.6067559 6.72706435,18.6067559 C6.91057304,18.6067559 7.05921652,18.4589536 7.05921652,18.2765168 C7.05921652,18.0943651 6.91057304,17.9465628 6.72706435,17.9465628" id="Fill-41" fill="#231B3B"></path>
                    <path d="M8.31171,18.0588897 C8.1282013,18.0588897 7.97955783,18.2065494 7.97955783,18.3888437 C7.97955783,18.5711379 8.1282013,18.7189402 8.31171,18.7189402 C8.4952187,18.7189402 8.64400565,18.5711379 8.64400565,18.3888437 C8.64400565,18.2065494 8.4952187,18.0588897 8.31171,18.0588897" id="Fill-43" fill="#231B3B"></path>
                    <path d="M9.91357304,18.2078179 C9.73006435,18.2078179 9.58142087,18.3556202 9.58142087,18.537772 C9.58142087,18.7202087 9.73006435,18.868011 9.91357304,18.868011 C10.0970817,18.868011 10.2458687,18.7202087 10.2458687,18.537772 C10.2458687,18.3556202 10.0970817,18.2078179 9.91357304,18.2078179" id="Fill-45" fill="#231B3B"></path>
                    <path d="M10.6184961,19.7276161 C10.4349874,19.7276161 10.2863439,19.8754184 10.2863439,20.0575701 C10.2863439,20.2400069 10.4349874,20.3876667 10.6184961,20.3876667 C10.8020048,20.3876667 10.9507917,20.2400069 10.9507917,20.0575701 C10.9507917,19.8754184 10.8020048,19.7276161 10.6184961,19.7276161" id="Fill-47" fill="#231B3B"></path>
                    <path d="M9.7172087,21.0895779 C9.5337,21.0895779 9.38491304,21.2372377 9.38491304,21.419532 C9.38491304,21.6018262 9.5337,21.7496285 9.7172087,21.7496285 C9.90071739,21.7496285 10.0493609,21.6018262 10.0493609,21.419532 C10.0493609,21.2372377 9.90071739,21.0895779 9.7172087,21.0895779" id="Fill-49" fill="#231B3B"></path>
                    <path d="M10.4830813,22.5286478 C10.2995726,22.5286478 10.1509291,22.6764501 10.1509291,22.8586018 C10.1509291,23.0410386 10.2995726,23.1886984 10.4830813,23.1886984 C10.66659,23.1886984 10.8152335,23.0410386 10.8152335,22.8586018 C10.8152335,22.6764501 10.66659,22.5286478 10.4830813,22.5286478" id="Fill-51" fill="#231B3B"></path>
                    <path d="M11.2659704,23.9216382 C11.0824617,23.9216382 10.9338183,24.0692979 10.9338183,24.2515922 C10.9338183,24.434029 11.0824617,24.5816887 11.2659704,24.5816887 C11.4494791,24.5816887 11.5982661,24.434029 11.5982661,24.2515922 C11.5982661,24.0692979 11.4494791,23.9216382 11.2659704,23.9216382" id="Fill-53" fill="#231B3B"></path>
                    <path d="M12.1527665,22.6173007 C11.9692578,22.6173007 11.8204709,22.7649605 11.8204709,22.9472547 C11.8204709,23.129549 11.9692578,23.2773513 12.1527665,23.2773513 C12.3362752,23.2773513 12.4849187,23.129549 12.4849187,22.9472547 C12.4849187,22.7649605 12.3362752,22.6173007 12.1527665,22.6173007" id="Fill-55" fill="#231B3B"></path>
                    <path d="M13.0469804,21.3320336 C12.8634717,21.3320336 12.7146848,21.4798359 12.7146848,21.6619876 C12.7146848,21.8444244 12.8634717,21.9920841 13.0469804,21.9920841 C13.2304891,21.9920841 13.3791326,21.8444244 13.3791326,21.6619876 C13.3791326,21.4798359 13.2304891,21.3320336 13.0469804,21.3320336" id="Fill-57" fill="#231B3B"></path>
                    <path d="M13.9606787,20.0638984 C13.77717,20.0638984 13.6285265,20.2115582 13.6285265,20.3938524 C13.6285265,20.5761467 13.77717,20.723949 13.9606787,20.723949 C14.1441874,20.723949 14.2928309,20.5761467 14.2928309,20.3938524 C14.2928309,20.2115582 14.1441874,20.0638984 13.9606787,20.0638984" id="Fill-59" fill="#231B3B"></path>
                    <path d="M15.6751291,20.2573669 C15.4916204,20.2573669 15.342977,20.4051692 15.342977,20.5874634 C15.342977,20.7697577 15.4916204,20.91756 15.6751291,20.91756 C15.8586378,20.91756 16.0074248,20.7697577 16.0074248,20.5874634 C16.0074248,20.4051692 15.8586378,20.2573669 15.6751291,20.2573669" id="Fill-61" fill="#231B3B"></path>
                    <path d="M14.7390196,21.4915517 C14.5555109,21.4915517 14.4067239,21.639354 14.4067239,21.8215057 C14.4067239,22.0039425 14.5555109,22.1517448 14.7390196,22.1517448 C14.9225283,22.1517448 15.0711717,22.0039425 15.0711717,21.8215057 C15.0711717,21.639354 14.9225283,21.4915517 14.7390196,21.4915517" id="Fill-63" fill="#231B3B"></path>
                    <path d="M13.8560687,22.7486979 C13.67256,22.7486979 13.523773,22.8965002 13.523773,23.078652 C13.523773,23.2610887 13.67256,23.4087485 13.8560687,23.4087485 C14.0395774,23.4087485 14.1882209,23.2610887 14.1882209,23.078652 C14.1882209,22.8965002 14.0395774,22.7486979 13.8560687,22.7486979" id="Fill-65" fill="#231B3B"></path>
                    <path d="M12.95184,24.0169756 C12.7683313,24.0169756 12.6196878,24.1646354 12.6196878,24.3469297 C12.6196878,24.5292239 12.7683313,24.6770262 12.95184,24.6770262 C13.1353487,24.6770262 13.2839922,24.5292239 13.2839922,24.3469297 C13.2839922,24.1646354 13.1353487,24.0169756 12.95184,24.0169756" id="Fill-67" fill="#231B3B"></path>
                    <g id="Group-71" transform="translate(14.347826, 24.071821)">
                        <mask id="mask-2" fill="white">
                            <use xlink:href="#path-1"></use>
                        </mask>
                        <g id="Clip-70"></g>
                        <path d="M0.393704348,0.0526073563 C0.210195652,0.0526073563 0.0615521739,0.200267126 0.0615521739,0.382561379 C0.0615521739,0.564855632 0.210195652,0.712657931 0.393704348,0.712657931 C0.577213043,0.712657931 0.725856522,0.564855632 0.725856522,0.382561379 C0.725856522,0.200267126 0.577213043,0.0526073563 0.393704348,0.0526073563" id="Fill-69" fill="#231B3B" mask="url(#mask-2)"></path>
                    </g>
                    <path d="M15.5805483,22.8912267 C15.3970396,22.8912267 15.2482526,23.039029 15.2482526,23.2211807 C15.2482526,23.4036175 15.3970396,23.5514198 15.5805483,23.5514198 C15.764057,23.5514198 15.9127004,23.4036175 15.9127004,23.2211807 C15.9127004,23.039029 15.764057,22.8912267 15.5805483,22.8912267" id="Fill-72" fill="#231B3B"></path>
                    <path d="M16.66995,24.1162184 C16.4864413,24.1162184 16.3376543,24.2638782 16.3376543,24.4461724 C16.3376543,24.6286092 16.4864413,24.776269 16.66995,24.776269 C16.8534587,24.776269 17.0021022,24.6286092 17.0021022,24.4461724 C17.0021022,24.2638782 16.8534587,24.1162184 16.66995,24.1162184" id="Fill-74" fill="#231B3B"></path>
                    <path d="M17.2967491,22.9508037 C17.1132404,22.9508037 16.9644535,23.098606 16.9644535,23.2807577 C16.9644535,23.4631945 17.1132404,23.6108543 17.2967491,23.6108543 C17.4802578,23.6108543 17.6289013,23.4631945 17.6289013,23.2807577 C17.6289013,23.098606 17.4802578,22.9508037 17.2967491,22.9508037" id="Fill-76" fill="#231B3B"></path>
                    <path d="M18.6564352,23.8546924 C18.4729265,23.8546924 18.324283,24.0024947 18.324283,24.1846464 C18.324283,24.3670832 18.4729265,24.5148855 18.6564352,24.5148855 C18.8399439,24.5148855 18.9885874,24.3670832 18.9885874,24.1846464 C18.9885874,24.0024947 18.8399439,23.8546924 18.6564352,23.8546924" id="Fill-78" fill="#231B3B"></path>
                    <path d="M19.7431683,22.5531343 C19.5596596,22.5531343 19.4110161,22.7009366 19.4110161,22.8830883 C19.4110161,23.0655251 19.5596596,23.2131848 19.7431683,23.2131848 C19.926677,23.2131848 20.0754639,23.0655251 20.0754639,22.8830883 C20.0754639,22.7009366 19.926677,22.5531343 19.7431683,22.5531343" id="Fill-80" fill="#231B3B"></path>
                    <path d="M20.5227717,23.9643683 C20.339263,23.9643683 20.1904761,24.1121706 20.1904761,24.2943223 C20.1904761,24.4767591 20.339263,24.6245614 20.5227717,24.6245614 C20.7062804,24.6245614 20.8549239,24.4767591 20.8549239,24.2943223 C20.8549239,24.1121706 20.7062804,23.9643683 20.5227717,23.9643683" id="Fill-82" fill="#231B3B"></path>
                    <path d="M21.4876057,22.7154317 C21.304097,22.7154317 21.1554535,22.8630915 21.1554535,23.0453857 C21.1554535,23.22768 21.304097,23.3754823 21.4876057,23.3754823 C21.6709709,23.3754823 21.8197578,23.22768 21.8197578,23.0453857 C21.8197578,22.8630915 21.6709709,22.7154317 21.4876057,22.7154317" id="Fill-84" fill="#231B3B"></path>
                    <path d="M22.4756974,23.9731338 C22.2921887,23.9731338 22.1434017,24.1207936 22.1434017,24.3030878 C22.1434017,24.4855246 22.2921887,24.6331844 22.4756974,24.6331844 C22.6590626,24.6331844 22.8078496,24.4855246 22.8078496,24.3030878 C22.8078496,24.1207936 22.6590626,23.9731338 22.4756974,23.9731338" id="Fill-86" fill="#231B3B"></path>
                    <path d="M24.2872539,23.9281802 C24.1037452,23.9281802 23.9551017,24.07584 23.9551017,24.2581343 C23.9551017,24.4404285 24.1037452,24.5882308 24.2872539,24.5882308 C24.4706191,24.5882308 24.6194061,24.4404285 24.6194061,24.2581343 C24.6194061,24.07584 24.4706191,23.9281802 24.2872539,23.9281802" id="Fill-88" fill="#231B3B"></path>
                    <path d="M25.9977874,24.0942262 C25.8203048,24.0942262 25.6763961,24.2371825 25.6763961,24.413348 C25.6763961,24.5897986 25.8203048,24.7326124 25.9977874,24.7326124 C26.1751265,24.7326124 26.3190352,24.5897986 26.3190352,24.413348 C26.3190352,24.2371825 26.1751265,24.0942262 25.9977874,24.0942262" id="Fill-90" fill="#231B3B"></path>
                    <path d="M24.8590578,22.3628726 C24.6779883,22.3628726 24.5313535,22.508537 24.5313535,22.6884083 C24.5313535,22.868137 24.6779883,23.0138014 24.8590578,23.0138014 C25.0399839,23.0138014 25.1867622,22.868137 25.1867622,22.6884083 C25.1867622,22.508537 25.0399839,22.3628726 24.8590578,22.3628726" id="Fill-92" fill="#231B3B"></path>
                    <path d="M23.3156909,22.5506257 C23.1321822,22.5506257 22.9835387,22.698428 22.9835387,22.8807223 C22.9835387,23.0630166 23.1321822,23.2108189 23.3156909,23.2108189 C23.4990561,23.2108189 23.647843,23.0630166 23.647843,22.8807223 C23.647843,22.698428 23.4990561,22.5506257 23.3156909,22.5506257" id="Fill-94" fill="#231B3B"></path>
                    <path d="M23.7870457,20.7623462 C23.603537,20.7623462 23.4548935,20.910006 23.4548935,21.0923002 C23.4548935,21.2745945 23.603537,21.4223968 23.7870457,21.4223968 C23.9704109,21.4223968 24.1191978,21.2745945 24.1191978,21.0923002 C24.1191978,20.910006 23.9704109,20.7623462 23.7870457,20.7623462" id="Fill-96" fill="#231B3B"></path>
                    <path d="M22.3884052,21.4123485 C22.2048965,21.4123485 22.056253,21.5601508 22.056253,21.7424451 C22.056253,21.9247393 22.2048965,22.0725416 22.3884052,22.0725416 C22.5717704,22.0725416 22.7205574,21.9247393 22.7205574,21.7424451 C22.7205574,21.5601508 22.5717704,21.4123485 22.3884052,21.4123485" id="Fill-98" fill="#231B3B"></path>
                    <path d="M21.8852557,20.0508143 C21.7018904,20.0508143 21.5531035,20.1986166 21.5531035,20.3809108 C21.5531035,20.5632051 21.7018904,20.7110074 21.8852557,20.7110074 C22.0687643,20.7110074 22.2174078,20.5632051 22.2174078,20.3809108 C22.2174078,20.1986166 22.0687643,20.0508143 21.8852557,20.0508143" id="Fill-100" fill="#231B3B"></path>
                    <path d="M22.975217,19.0549232 C22.7927126,19.0549232 22.644643,19.2018703 22.644643,19.3831669 C22.644643,19.5644634 22.7927126,19.7114106 22.975217,19.7114106 C23.1575778,19.7114106 23.3056474,19.5644634 23.3056474,19.3831669 C23.3056474,19.2018703 23.1575778,19.0549232 22.975217,19.0549232" id="Fill-102" fill="#231B3B"></path>
                    <path d="M22.1136443,17.3555674 C21.934727,17.3555674 21.789527,17.4998064 21.789527,17.6775398 C21.789527,17.8554156 21.934727,17.9995122 22.1136443,17.9995122 C22.2927052,17.9995122 22.4377617,17.8554156 22.4377617,17.6775398 C22.4377617,17.4998064 22.2927052,17.3555674 22.1136443,17.3555674" id="Fill-104" fill="#231B3B"></path>
                    <path d="M21.2261452,18.5736037 C21.04278,18.5736037 20.893993,18.721406 20.893993,18.9035577 C20.893993,19.0859945 21.04278,19.2336543 21.2261452,19.2336543 C21.4096539,19.2336543 21.5582974,19.0859945 21.5582974,18.9035577 C21.5582974,18.721406 21.4096539,18.5736037 21.2261452,18.5736037" id="Fill-106" fill="#231B3B"></path>
                    <path d="M20.7433122,21.2673113 C20.5598035,21.2673113 20.41116,21.4151136 20.41116,21.5972653 C20.41116,21.7797021 20.5598035,21.9275044 20.7433122,21.9275044 C20.9268209,21.9275044 21.0754643,21.7797021 21.0754643,21.5972653 C21.0754643,21.4151136 20.9268209,21.2673113 20.7433122,21.2673113" id="Fill-108" fill="#231B3B"></path>
                    <path d="M20.1883096,19.725806 C20.0048009,19.725806 19.8560139,19.8736083 19.8560139,20.05576 C19.8560139,20.2381968 20.0048009,20.3859991 20.1883096,20.3859991 C20.3718183,20.3859991 20.5204617,20.2381968 20.5204617,20.05576 C20.5204617,19.8736083 20.3718183,19.725806 20.1883096,19.725806" id="Fill-110" fill="#231B3B"></path>
                    <path d="M18.4286061,19.4147228 C18.2450974,19.4147228 18.0964539,19.5625251 18.0964539,19.7446768 C18.0964539,19.9271136 18.2450974,20.0747733 18.4286061,20.0747733 C18.6121148,20.0747733 18.7609017,19.9271136 18.7609017,19.7446768 C18.7609017,19.5625251 18.6121148,19.4147228 18.4286061,19.4147228" id="Fill-112" fill="#231B3B"></path>
                    <path d="M19.1663857,20.8717513 C18.982877,20.8717513 18.8342335,21.0195536 18.8342335,21.2017053 C18.8342335,21.3841421 18.982877,21.5318018 19.1663857,21.5318018 C19.3498943,21.5318018 19.4986813,21.3841421 19.4986813,21.2017053 C19.4986813,21.0195536 19.3498943,20.8717513 19.1663857,20.8717513" id="Fill-114" fill="#231B3B"></path>
                    <path d="M18.2579387,22.0066791 C18.07443,22.0066791 17.9257865,22.1543389 17.9257865,22.3366331 C17.9257865,22.5189274 18.07443,22.6667297 18.2579387,22.6667297 C18.4414474,22.6667297 18.5902343,22.5189274 18.5902343,22.3366331 C18.5902343,22.1543389 18.4414474,22.0066791 18.2579387,22.0066791" id="Fill-116" fill="#231B3B"></path>
                    <path d="M16.4491226,21.6402092 C16.2656139,21.6402092 16.1169704,21.787869 16.1169704,21.9701632 C16.1169704,22.1524575 16.2656139,22.3002598 16.4491226,22.3002598 C16.6326313,22.3002598 16.7814183,22.1524575 16.7814183,21.9701632 C16.7814183,21.787869 16.6326313,21.6402092 16.4491226,21.6402092" id="Fill-118" fill="#231B3B"></path>
                    <path d="M17.4510887,20.560383 C17.26758,20.560383 17.118793,20.7080428 17.118793,20.890337 C17.118793,21.0726313 17.26758,21.2204336 17.4510887,21.2204336 C17.6345974,21.2204336 17.7832409,21.0726313 17.7832409,20.890337 C17.7832409,20.7080428 17.6345974,20.560383 17.4510887,20.560383" id="Fill-120" fill="#231B3B"></path>
                    <path d="M16.6701509,19.1314754 C16.4866422,19.1314754 16.3379987,19.2791352 16.3379987,19.4614294 C16.3379987,19.6438662 16.4866422,19.791526 16.6701509,19.791526 C16.8536596,19.791526 17.002303,19.6438662 17.002303,19.4614294 C17.002303,19.2791352 16.8536596,19.1314754 16.6701509,19.1314754" id="Fill-122" fill="#231B3B"></path>
                    <path d="M17.6487157,18.0009802 C17.465207,18.0009802 17.31642,18.1487825 17.31642,18.3309343 C17.31642,18.513371 17.465207,18.6610308 17.6487157,18.6610308 C17.8322243,18.6610308 17.9808678,18.513371 17.9808678,18.3309343 C17.9808678,18.1487825 17.8322243,18.0009802 17.6487157,18.0009802" id="Fill-124" fill="#231B3B"></path>
                    <path d="M18.6194465,16.8833126 C18.4359378,16.8833126 18.2872943,17.0311149 18.2872943,17.2134092 C18.2872943,17.3957034 18.4359378,17.5435057 18.6194465,17.5435057 C18.8029552,17.5435057 18.9515987,17.3957034 18.9515987,17.2134092 C18.9515987,17.0311149 18.8029552,16.8833126 18.6194465,16.8833126" id="Fill-126" fill="#231B3B"></path>
                    <path d="M19.4345609,18.3049798 C19.2510522,18.3049798 19.1022652,18.4527821 19.1022652,18.6349338 C19.1022652,18.8173706 19.2510522,18.9650303 19.4345609,18.9650303 C19.6180696,18.9650303 19.766713,18.8173706 19.766713,18.6349338 C19.766713,18.4527821 19.6180696,18.3049798 19.4345609,18.3049798" id="Fill-128" fill="#231B3B"></path>
                    <path d="M20.365907,17.1426152 C20.1823983,17.1426152 20.0337548,17.2904175 20.0337548,17.4725692 C20.0337548,17.655006 20.1823983,17.8028083 20.365907,17.8028083 C20.5494157,17.8028083 20.6982026,17.655006 20.6982026,17.4725692 C20.6982026,17.2904175 20.5494157,17.1426152 20.365907,17.1426152" id="Fill-130" fill="#231B3B"></path>
                    <path d="M21.1034139,15.8432947 C20.9199052,15.8432947 20.7711183,15.9909545 20.7711183,16.1732487 C20.7711183,16.355543 20.9199052,16.5033453 21.1034139,16.5033453 C21.2867791,16.5033453 21.4355661,16.355543 21.4355661,16.1732487 C21.4355661,15.9909545 21.2867791,15.8432947 21.1034139,15.8432947" id="Fill-132" fill="#231B3B"></path>
                    <path d="M19.4589378,15.6765503 C19.2754291,15.6765503 19.1266422,15.8242101 19.1266422,16.0065044 C19.1266422,16.1887986 19.2754291,16.3366009 19.4589378,16.3366009 C19.6424465,16.3366009 19.79109,16.1887986 19.79109,16.0065044 C19.79109,15.8242101 19.6424465,15.6765503 19.4589378,15.6765503" id="Fill-134" fill="#231B3B"></path>
                    <path d="M20.2013517,14.3738805 C20.0182735,14.3738805 19.869917,14.5212552 19.869917,14.7031218 C19.869917,14.884846 20.0182735,15.0322207 20.2013517,15.0322207 C20.3842865,15.0322207 20.532643,14.884846 20.532643,14.7031218 C20.532643,14.5212552 20.3842865,14.3738805 20.2013517,14.3738805" id="Fill-136" fill="#231B3B"></path>
                    <path d="M19.4234987,12.8358529 C19.2405639,12.8358529 19.0922074,12.9832276 19.0922074,13.1650943 C19.0922074,13.3468184 19.2405639,13.4941931 19.4234987,13.4941931 C19.6064335,13.4941931 19.7549335,13.3468184 19.7549335,13.1650943 C19.7549335,12.9832276 19.6064335,12.8358529 19.4234987,12.8358529" id="Fill-138" fill="#231B3B"></path>
                    <path d="M18.6517435,14.159389 C18.4682348,14.159389 18.3195913,14.3071913 18.3195913,14.489343 C18.3195913,14.6717798 18.4682348,14.8195821 18.6517435,14.8195821 C18.8352522,14.8195821 18.9840391,14.6717798 18.9840391,14.489343 C18.9840391,14.3071913 18.8352522,14.159389 18.6517435,14.159389" id="Fill-140" fill="#231B3B"></path>
                    <path d="M17.8731874,12.6537867 C17.6896787,12.6537867 17.5410352,12.8014464 17.5410352,12.9837407 C17.5410352,13.1660349 17.6896787,13.3138372 17.8731874,13.3138372 C18.0566961,13.3138372 18.205483,13.1660349 18.205483,12.9837407 C18.205483,12.8014464 18.0566961,12.6537867 17.8731874,12.6537867" id="Fill-142" fill="#231B3B"></path>
                    <path d="M18.5452539,11.3045099 C18.3623191,11.3045099 18.2138191,11.4518846 18.2138191,11.6337513 C18.2138191,11.8154754 18.3623191,11.9627076 18.5452539,11.9627076 C18.7281887,11.9627076 18.8765452,11.8154754 18.8765452,11.6337513 C18.8765452,11.4518846 18.7281887,11.3045099 18.5452539,11.3045099" id="Fill-144" fill="#231B3B"></path>
                    <path d="M16.302287,12.5111297 C16.1187783,12.5111297 15.9699913,12.658932 15.9699913,12.8410837 C15.9699913,13.0235205 16.1187783,13.1711802 16.302287,13.1711802 C16.4857957,13.1711802 16.6344391,13.0235205 16.6344391,12.8410837 C16.6344391,12.658932 16.4857957,12.5111297 16.302287,12.5111297" id="Fill-146" fill="#231B3B"></path>
                    <path d="M15.3768235,13.5230267 C15.1933148,13.5230267 15.0446713,13.6706864 15.0446713,13.8529807 C15.0446713,14.0352749 15.1933148,14.1830772 15.3768235,14.1830772 C15.5603322,14.1830772 15.7091191,14.0352749 15.7091191,13.8529807 C15.7091191,13.6706864 15.5603322,13.5230267 15.3768235,13.5230267" id="Fill-148" fill="#231B3B"></path>
                    <path d="M14.4365674,14.6571278 C14.2530587,14.6571278 14.1044152,14.8049301 14.1044152,14.9870818 C14.1044152,15.1695186 14.2530587,15.3171784 14.4365674,15.3171784 C14.6200761,15.3171784 14.7687196,15.1695186 14.7687196,14.9870818 C14.7687196,14.8049301 14.6200761,14.6571278 14.4365674,14.6571278" id="Fill-150" fill="#231B3B"></path>
                    <path d="M15.1412178,16.210463 C14.9577091,16.210463 14.8089222,16.3582653 14.8089222,16.540417 C14.8089222,16.7228538 14.9577091,16.8706561 15.1412178,16.8706561 C15.3247265,16.8706561 15.47337,16.7228538 15.47337,16.540417 C15.47337,16.3582653 15.3247265,16.210463 15.1412178,16.210463" id="Fill-152" fill="#231B3B"></path>
                    <path d="M16.1046457,15.0744092 C15.921137,15.0744092 15.7724935,15.2222115 15.7724935,15.4043632 C15.7724935,15.5868 15.921137,15.7344598 16.1046457,15.7344598 C16.2881543,15.7344598 16.4369413,15.5868 16.4369413,15.4043632 C16.4369413,15.2222115 16.2881543,15.0744092 16.1046457,15.0744092" id="Fill-154" fill="#231B3B"></path>
                    <path d="M17.0489622,13.9419756 C16.8654535,13.9419756 16.71681,14.0896354 16.71681,14.2719297 C16.71681,14.4543664 16.8654535,14.6020262 17.0489622,14.6020262 C17.2324709,14.6020262 17.3812578,14.4543664 17.3812578,14.2719297 C17.3812578,14.0896354 17.2324709,13.9419756 17.0489622,13.9419756" id="Fill-156" fill="#231B3B"></path>
                    <path d="M17.8086652,15.4187729 C17.6251565,15.4187729 17.476513,15.5665752 17.476513,15.7487269 C17.476513,15.9311637 17.6251565,16.0788234 17.8086652,16.0788234 C17.9921739,16.0788234 18.1409609,15.9311637 18.1409609,15.7487269 C18.1409609,15.5665752 17.9921739,15.4187729 17.8086652,15.4187729" id="Fill-158" fill="#231B3B"></path>
                    <path d="M16.8673617,16.5553825 C16.683853,16.5553825 16.5352096,16.7030423 16.5352096,16.8853366 C16.5352096,17.0676308 16.683853,17.2154331 16.8673617,17.2154331 C17.0508704,17.2154331 17.1995139,17.0676308 17.1995139,16.8853366 C17.1995139,16.7030423 17.0508704,16.5553825 16.8673617,16.5553825" id="Fill-160" fill="#231B3B"></path>
                    <path d="M15.8930009,17.689897 C15.7094922,17.689897 15.5608487,17.8375568 15.5608487,18.019851 C15.5608487,18.2021453 15.7094922,18.3499476 15.8930009,18.3499476 C16.0765096,18.3499476 16.2252965,18.2021453 16.2252965,18.019851 C16.2252965,17.8375568 16.0765096,17.689897 15.8930009,17.689897" id="Fill-162" fill="#231B3B"></path>
                    <path d="M14.9091848,18.8338897 C14.7256761,18.8338897 14.5770326,18.981692 14.5770326,19.1638437 C14.5770326,19.3462805 14.7256761,19.4940828 14.9091848,19.4940828 C15.0926935,19.4940828 15.2414804,19.3462805 15.2414804,19.1638437 C15.2414804,18.981692 15.0926935,18.8338897 14.9091848,18.8338897" id="Fill-164" fill="#231B3B"></path>
                    <path d="M14.1651065,17.375892 C13.9815978,17.375892 13.8329543,17.5235517 13.8329543,17.705846 C13.8329543,17.8882828 13.9815978,18.0359425 14.1651065,18.0359425 C14.3486152,18.0359425 14.4972587,17.8882828 14.4972587,17.705846 C14.4972587,17.5235517 14.3486152,17.375892 14.1651065,17.375892" id="Fill-166" fill="#231B3B"></path>
                    <path d="M13.2076904,18.6038055 C13.0241817,18.6038055 12.8755383,18.7514653 12.8755383,18.9337595 C12.8755383,19.1161963 13.0241817,19.2638561 13.2076904,19.2638561 C13.3911991,19.2638561 13.5399861,19.1161963 13.5399861,18.9337595 C13.5399861,18.7514653 13.3911991,18.6038055 13.2076904,18.6038055" id="Fill-168" fill="#231B3B"></path>
                    <path d="M12.2811796,19.874606 C12.0976709,19.874606 11.9490274,20.0222657 11.9490274,20.20456 C11.9490274,20.3869968 12.0976709,20.5346566 12.2811796,20.5346566 C12.4646883,20.5346566 12.6134752,20.3869968 12.6134752,20.20456 C12.6134752,20.0222657 12.4646883,19.874606 12.2811796,19.874606" id="Fill-170" fill="#231B3B"></path>
                    <path d="M11.3665057,21.1800409 C11.182997,21.1800409 11.03421,21.3277007 11.03421,21.5099949 C11.03421,21.6924317 11.182997,21.8400915 11.3665057,21.8400915 C11.5500143,21.8400915 11.6986578,21.6924317 11.6986578,21.5099949 C11.6986578,21.3277007 11.5500143,21.1800409 11.3665057,21.1800409" id="Fill-172" fill="#231B3B"></path>
                    <path d="M11.5426252,18.3912667 C11.3591165,18.3912667 11.210473,18.539069 11.210473,18.7212207 C11.210473,18.9036575 11.3591165,19.0513172 11.5426252,19.0513172 C11.7261339,19.0513172 11.8749209,18.9036575 11.8749209,18.7212207 C11.8749209,18.539069 11.7261339,18.3912667 11.5426252,18.3912667" id="Fill-174" fill="#231B3B"></path>
                    <path d="M12.5027674,17.1083798 C12.3192587,17.1083798 12.1704717,17.2561821 12.1704717,17.4384763 C12.1704717,17.6207706 12.3192587,17.7685729 12.5027674,17.7685729 C12.6862761,17.7685729 12.8349196,17.6207706 12.8349196,17.4384763 C12.8349196,17.2561821 12.6862761,17.1083798 12.5027674,17.1083798" id="Fill-176" fill="#231B3B"></path>
                    <path d="M13.4688639,15.8544262 C13.2853552,15.8544262 13.1367117,16.0022285 13.1367117,16.1843802 C13.1367117,16.366817 13.2853552,16.5144768 13.4688639,16.5144768 C13.6523726,16.5144768 13.8011596,16.366817 13.8011596,16.1843802 C13.8011596,16.0022285 13.6523726,15.8544262 13.4688639,15.8544262" id="Fill-178" fill="#231B3B"></path>
                    <path d="M12.8834009,14.2345586 C12.6998922,14.2345586 12.5512487,14.3823609 12.5512487,14.5645126 C12.5512487,14.7469494 12.6998922,14.8946092 12.8834009,14.8946092 C13.0669096,14.8946092 13.2156965,14.7469494 13.2156965,14.5645126 C13.2156965,14.3823609 13.0669096,14.2345586 12.8834009,14.2345586" id="Fill-180" fill="#231B3B"></path>
                    <path d="M12.2886691,12.6866395 C12.1051604,12.6866395 11.956517,12.8344418 11.956517,13.0165936 C11.956517,13.1990303 12.1051604,13.3468326 12.2886691,13.3468326 C12.4721778,13.3468326 12.6209648,13.1990303 12.6209648,13.0165936 C12.6209648,12.8344418 12.4721778,12.6866395 12.2886691,12.6866395" id="Fill-182" fill="#231B3B"></path>
                    <path d="M11.666777,11.1619811 C11.4832683,11.1619811 11.3346248,11.3096409 11.3346248,11.4919352 C11.3346248,11.6742294 11.4832683,11.8220317 11.666777,11.8220317 C11.8502857,11.8220317 11.9989291,11.6742294 11.9989291,11.4919352 C11.9989291,11.3096409 11.8502857,11.1619811 11.666777,11.1619811" id="Fill-184" fill="#231B3B"></path>
                    <path d="M13.3717004,11.3521002 C13.1881917,11.3521002 13.0394048,11.4999025 13.0394048,11.6821968 C13.0394048,11.864491 13.1881917,12.0122933 13.3717004,12.0122933 C13.5552091,12.0122933 13.7038526,11.864491 13.7038526,11.6821968 C13.7038526,11.4999025 13.5552091,11.3521002 13.3717004,11.3521002" id="Fill-186" fill="#231B3B"></path>
                    <path d="M13.9587848,12.9009885 C13.7752761,12.9009885 13.6266326,13.0486483 13.6266326,13.2309425 C13.6266326,13.4133793 13.7752761,13.5610391 13.9587848,13.5610391 C14.1422935,13.5610391 14.2910804,13.4133793 14.2910804,13.2309425 C14.2910804,13.0486483 14.1422935,12.9009885 13.9587848,12.9009885" id="Fill-188" fill="#231B3B"></path>
                    <path d="M15.0684887,11.5304037 C14.88498,11.5304037 14.7363365,11.678206 14.7363365,11.8605002 C14.7363365,12.0427945 14.88498,12.1905968 15.0684887,12.1905968 C15.2519974,12.1905968 15.4007843,12.0427945 15.4007843,11.8605002 C15.4007843,11.678206 15.2519974,11.5304037 15.0684887,11.5304037" id="Fill-190" fill="#231B3B"></path>
                    <path d="M15.94296,9.93405333 C15.7594513,9.93405333 15.6108078,10.0818556 15.6108078,10.2641499 C15.6108078,10.4464441 15.7594513,10.5942464 15.94296,10.5942464 C16.1264687,10.5942464 16.2752557,10.4464441 16.2752557,10.2641499 C16.2752557,10.0818556 16.1264687,9.93405333 15.94296,9.93405333" id="Fill-192" fill="#231B3B"></path>
                    <path d="M16.86366,11.217097 C16.6801513,11.217097 16.5313643,11.3648993 16.5313643,11.547051 C16.5313643,11.7294878 16.6801513,11.8771476 16.86366,11.8771476 C17.0471687,11.8771476 17.1958122,11.7294878 17.1958122,11.547051 C17.1958122,11.3648993 17.0471687,11.217097 16.86366,11.217097" id="Fill-194" fill="#231B3B"></path>
                    <path d="M17.6127887,9.88575034 C17.4298539,9.88575034 17.2813539,10.0329825 17.2813539,10.2148492 C17.2813539,10.3965733 17.4298539,10.543948 17.6127887,10.543948 C17.7957235,10.543948 17.94408,10.3965733 17.94408,10.2148492 C17.94408,10.0329825 17.7957235,9.88575034 17.6127887,9.88575034" id="Fill-196" fill="#231B3B"></path>
                    <path d="M16.7932409,8.44153517 C16.6103061,8.44153517 16.4618061,8.58890989 16.4618061,8.77077655 C16.4618061,8.95250069 16.6103061,9.0998754 16.7932409,9.0998754 C16.9761757,9.0998754 17.1245322,8.95250069 17.1245322,8.77077655 C17.1245322,8.58890989 16.9761757,8.44153517 16.7932409,8.44153517" id="Fill-198" fill="#231B3B"></path>
                    <path d="M15.229213,8.38029057 C15.0457043,8.38029057 14.8970609,8.52809287 14.8970609,8.7102446 C14.8970609,8.89268138 15.0457043,9.04034115 15.229213,9.04034115 C15.4127217,9.04034115 15.5615087,8.89268138 15.5615087,8.7102446 C15.5615087,8.52809287 15.4127217,8.38029057 15.229213,8.38029057" id="Fill-200" fill="#231B3B"></path>
                    <path d="M13.6644678,8.40145609 C13.4809591,8.40145609 13.3321722,8.54925839 13.3321722,8.73141011 C13.3321722,8.9138469 13.4809591,9.0616492 13.6644678,9.0616492 C13.8479765,9.0616492 13.99662,8.9138469 13.99662,8.73141011 C13.99662,8.54925839 13.8479765,8.40145609 13.6644678,8.40145609" id="Fill-202" fill="#231B3B"></path>
                    <path d="M14.411143,6.75068828 C14.2276343,6.75068828 14.0789909,6.89849057 14.0789909,7.0806423 C14.0789909,7.26307908 14.2276343,7.41073885 14.411143,7.41073885 C14.5946517,7.41073885 14.7434387,7.26307908 14.7434387,7.0806423 C14.7434387,6.89849057 14.5946517,6.75068828 14.411143,6.75068828" id="Fill-204" fill="#231B3B"></path>
                    <path d="M15.9323713,6.82555862 C15.7494365,6.82555862 15.6009365,6.97293333 15.6009365,7.1548 C15.6009365,7.33652414 15.7494365,7.48389885 15.9323713,7.48389885 C16.1153061,7.48389885 16.2636626,7.33652414 16.2636626,7.1548 C16.2636626,6.97293333 16.1153061,6.82555862 15.9323713,6.82555862" id="Fill-206" fill="#231B3B"></path>
                    <path d="M14.8225239,5.18007862 C14.6390152,5.18007862 14.4903717,5.32773839 14.4903717,5.51003264 C14.4903717,5.69246943 14.6390152,5.8401292 14.8225239,5.8401292 C15.0060326,5.8401292 15.1548196,5.69246943 15.1548196,5.51003264 C15.1548196,5.32773839 15.0060326,5.18007862 14.8225239,5.18007862" id="Fill-208" fill="#231B3B"></path>
                    <path d="M13.86924,3.61088 C13.6857313,3.61088 13.5370878,3.7586823 13.5370878,3.94083402 C13.5370878,4.1232708 13.6857313,4.27093057 13.86924,4.27093057 C14.0527487,4.27093057 14.2015357,4.1232708 14.2015357,3.94083402 C14.2015357,3.7586823 14.0527487,3.61088 13.86924,3.61088" id="Fill-210" fill="#231B3B"></path>
                    <path d="M13.0172804,5.18787494 C12.8337717,5.18787494 12.6849848,5.33567724 12.6849848,5.51782897 C12.6849848,5.70026575 12.8337717,5.84806805 13.0172804,5.84806805 C13.2007891,5.84806805 13.3494326,5.70026575 13.3494326,5.51782897 C13.3494326,5.33567724 13.2007891,5.18787494 13.0172804,5.18787494" id="Fill-212" fill="#231B3B"></path>
                    <path d="M11.1922657,4.87109057 C11.008757,4.87109057 10.85997,5.01875034 10.85997,5.2010446 C10.85997,5.38348138 11.008757,5.53114115 11.1922657,5.53114115 C11.3757743,5.53114115 11.5244178,5.38348138 11.5244178,5.2010446 C11.5244178,5.01875034 11.3757743,4.87109057 11.1922657,4.87109057" id="Fill-214" fill="#231B3B"></path>
                    <path d="M12.15753,3.49701379 C11.9740213,3.49701379 11.8253778,3.64481609 11.8253778,3.82711034 C11.8253778,4.0094046 11.9740213,4.1572069 12.15753,4.1572069 C12.3410387,4.1572069 12.4896822,4.0094046 12.4896822,3.82711034 C12.4896822,3.64481609 12.3410387,3.49701379 12.15753,3.49701379" id="Fill-216" fill="#231B3B"></path>
                    <path d="M12.9858874,1.90776138 C12.8023787,1.90776138 12.6537352,2.05542115 12.6537352,2.2377154 C12.6537352,2.42000966 12.8023787,2.56781195 12.9858874,2.56781195 C13.1693961,2.56781195 13.318183,2.42000966 13.318183,2.2377154 C13.318183,2.05542115 13.1693961,1.90776138 12.9858874,1.90776138" id="Fill-218" fill="#231B3B"></path>
                    <g id="Group-222" transform="translate(11.765217, 0.126993)">
                        <mask id="mask-4" fill="white">
                            <use xlink:href="#path-3"></use>
                        </mask>
                        <g id="Clip-221"></g>
                        <path d="M0.294575217,0.0154501149 C0.13517087,0.0154501149 0.00589695652,0.143868506 0.00589695652,0.30236046 C0.00589695652,0.460709885 0.13517087,0.589128276 0.294575217,0.589128276 C0.453979565,0.589128276 0.583253478,0.460709885 0.583253478,0.30236046 C0.583253478,0.143868506 0.453979565,0.0154501149 0.294575217,0.0154501149" id="Fill-220" fill="#231B3B" mask="url(#mask-4)"></path>
                    </g>
                    <path d="M11.3683278,1.82661977 C11.185393,1.82661977 11.0370365,1.97399448 11.0370365,2.15586115 C11.0370365,2.33758529 11.185393,2.48481747 11.3683278,2.48481747 C11.5514061,2.48481747 11.6997626,2.33758529 11.6997626,2.15586115 C11.6997626,1.97399448 11.5514061,1.82661977 11.3683278,1.82661977" id="Fill-223" fill="#231B3B"></path>
                    <path d="M10.3612396,3.28545839 C10.1857657,3.28545839 10.0434352,3.42670437 10.0434352,3.60101701 C10.0434352,3.77547218 10.1857657,3.91671816 10.3612396,3.91671816 C10.5367135,3.91671816 10.6789004,3.77547218 10.6789004,3.60101701 C10.6789004,3.42670437 10.5367135,3.28545839 10.3612396,3.28545839" id="Fill-225" fill="#231B3B"></path>
                    <path d="M9.4380287,4.83684092 C9.26155043,4.83684092 9.11850261,4.97894207 9.11850261,5.15439494 C9.11850261,5.32956276 9.26155043,5.47166391 9.4380287,5.47166391 C9.61450696,5.47166391 9.75755478,5.32956276 9.75755478,5.15439494 C9.75755478,4.97894207 9.61450696,4.83684092 9.4380287,4.83684092" id="Fill-227" fill="#231B3B"></path>
                    <path d="M10.0269352,6.36499126 C9.84342652,6.36499126 9.69478304,6.51265103 9.69478304,6.69494529 C9.69478304,6.87723954 9.84342652,7.02504184 10.0269352,7.02504184 C10.2104439,7.02504184 10.3590874,6.87723954 10.3590874,6.69494529 C10.3590874,6.51265103 10.2104439,6.36499126 10.0269352,6.36499126" id="Fill-229" fill="#231B3B"></path>
                    <path d="M11.5762565,6.48093839 C11.3927478,6.48093839 11.2441043,6.62874069 11.2441043,6.81089241 C11.2441043,6.9933292 11.3927478,7.14098897 11.5762565,7.14098897 C11.7597652,7.14098897 11.9084087,6.9933292 11.9084087,6.81089241 C11.9084087,6.62874069 11.7597652,6.48093839 11.5762565,6.48093839" id="Fill-231" fill="#231B3B"></path>
                    <path d="M12.9847683,6.88416644 C12.8012596,6.88416644 12.6524726,7.03196874 12.6524726,7.21412046 C12.6524726,7.39655724 12.8012596,7.54421701 12.9847683,7.54421701 C13.168277,7.54421701 13.3169204,7.39655724 13.3169204,7.21412046 C13.3169204,7.03196874 13.168277,6.88416644 12.9847683,6.88416644" id="Fill-233" fill="#231B3B"></path>
                    <path d="M12.0370226,8.23109149 C11.8535139,8.23109149 11.704727,8.37889379 11.704727,8.56104552 C11.704727,8.7434823 11.8535139,8.8912846 12.0370226,8.8912846 C12.2205313,8.8912846 12.3691748,8.7434823 12.3691748,8.56104552 C12.3691748,8.37889379 12.2205313,8.23109149 12.0370226,8.23109149" id="Fill-235" fill="#231B3B"></path>
                    <path d="M14.3542539,9.96300092 C14.1707452,9.96300092 14.0221017,10.1108032 14.0221017,10.2930975 C14.0221017,10.4753917 14.1707452,10.623194 14.3542539,10.623194 C14.5377626,10.623194 14.6865496,10.4753917 14.6865496,10.2930975 C14.6865496,10.1108032 14.5377626,9.96300092 14.3542539,9.96300092" id="Fill-237" fill="#231B3B"></path>
                    <path d="M12.7020874,9.80934069 C12.5185787,9.80934069 12.3699352,9.95700046 12.3699352,10.1392947 C12.3699352,10.3217315 12.5185787,10.4693913 12.7020874,10.4693913 C12.8855961,10.4693913 13.0342396,10.3217315 13.0342396,10.1392947 C13.0342396,9.95700046 12.8855961,9.80934069 12.7020874,9.80934069" id="Fill-239" fill="#231B3B"></path>
                    <path d="M11.0447987,9.61128276 C10.86129,9.61128276 10.7126465,9.75908506 10.7126465,9.94123678 C10.7126465,10.1236736 10.86129,10.2713333 11.0447987,10.2713333 C11.2283074,10.2713333 11.3770943,10.1236736 11.3770943,9.94123678 C11.3770943,9.75908506 11.2283074,9.61128276 11.0447987,9.61128276" id="Fill-241" fill="#231B3B"></path>
                    <path d="M10.4904274,7.96747034 C10.3069187,7.96747034 10.1581317,8.11513011 10.1581317,8.29742437 C10.1581317,8.47971862 10.3069187,8.62752092 10.4904274,8.62752092 C10.6739361,8.62752092 10.8225796,8.47971862 10.8225796,8.29742437 C10.8225796,8.11513011 10.6739361,7.96747034 10.4904274,7.96747034" id="Fill-243" fill="#231B3B"></path>
                    <path d="M8.88470478,7.90441563 C8.70119609,7.90441563 8.55240913,8.0520754 8.55240913,8.23436966 C8.55240913,8.41680644 8.70119609,8.56446621 8.88470478,8.56446621 C9.06821348,8.56446621 9.21685696,8.41680644 9.21685696,8.23436966 C9.21685696,8.0520754 9.06821348,7.90441563 8.88470478,7.90441563" id="Fill-245" fill="#231B3B"></path>
                    <path d="M8.44635,6.44586207 C8.27589783,6.44586207 8.13758478,6.58311724 8.13758478,6.75244138 C8.13758478,6.92176552 8.27589783,7.05916322 8.44635,7.05916322 C8.61680217,7.05916322 8.75497174,6.92176552 8.75497174,6.75244138 C8.75497174,6.58311724 8.61680217,6.44586207 8.44635,6.44586207" id="Fill-247" fill="#231B3B"></path>
                    <path d="M7.25550913,8.0679531 C7.11303522,8.0679531 6.9976787,8.18268874 6.9976787,8.32407724 C6.9976787,8.46560828 7.11303522,8.58034391 7.25550913,8.58034391 C7.39798304,8.58034391 7.51348304,8.46560828 7.51348304,8.32407724 C7.51348304,8.18268874 7.39798304,8.0679531 7.25550913,8.0679531" id="Fill-249" fill="#231B3B"></path>
                    <path d="M7.73106783,9.30896506 C7.54755913,9.30896506 7.39891565,9.45676736 7.39891565,9.63906161 C7.39891565,9.82135586 7.54755913,9.96915816 7.73106783,9.96915816 C7.91457652,9.96915816 8.06336348,9.82135586 8.06336348,9.63906161 C8.06336348,9.45676736 7.91457652,9.30896506 7.73106783,9.30896506" id="Fill-251" fill="#231B3B"></path>
                    <path d="M9.41854435,9.42851816 C9.23503565,9.42851816 9.08639217,9.57632046 9.08639217,9.75847218 C9.08639217,9.94090897 9.23503565,10.0885687 9.41854435,10.0885687 C9.60205304,10.0885687 9.75084,9.94090897 9.75084,9.75847218 C9.75084,9.57632046 9.60205304,9.42851816 9.41854435,9.42851816" id="Fill-253" fill="#231B3B"></path>
                    <path d="M8.22763174,10.7563729 C8.04412304,10.7563729 7.89547957,10.9040326 7.89547957,11.0863269 C7.89547957,11.2686211 8.04412304,11.4164234 8.22763174,11.4164234 C8.41114043,11.4164234 8.55992739,11.2686211 8.55992739,11.0863269 C8.55992739,10.9040326 8.41114043,10.7563729 8.22763174,10.7563729" id="Fill-255" fill="#231B3B"></path>
                    <path d="M6.42126913,10.197532 C6.24034304,10.197532 6.09356478,10.3431963 6.09356478,10.5230676 C6.09356478,10.7029389 6.24034304,10.8486032 6.42126913,10.8486032 C6.6023387,10.8486032 6.74897348,10.7029389 6.74897348,10.5230676 C6.74897348,10.3431963 6.6023387,10.197532 6.42126913,10.197532" id="Fill-257" fill="#231B3B"></path>
                    <path d="M5.37390652,11.7375122 C5.20747174,11.7375122 5.0724587,11.8714892 5.0724587,12.0369651 C5.0724587,12.2022984 5.20747174,12.3362754 5.37390652,12.3362754 C5.5403413,12.3362754 5.67535435,12.2022984 5.67535435,12.0369651 C5.67535435,11.8714892 5.5403413,11.7375122 5.37390652,11.7375122" id="Fill-259" fill="#231B3B"></path>
                    <path d="M4.46596174,13.3537738 C4.28890957,13.3537738 4.1454313,13.4963025 4.1454313,13.6720405 C4.1454313,13.8479209 4.28890957,13.9904497 4.46596174,13.9904497 C4.64287043,13.9904497 4.7863487,13.8479209 4.7863487,13.6720405 C4.7863487,13.4963025 4.64287043,13.3537738 4.46596174,13.3537738" id="Fill-261" fill="#231B3B"></path>
                    <path d="M6.13837304,13.3113145 C5.95486435,13.3113145 5.80607739,13.4591168 5.80607739,13.641411 C5.80607739,13.8237053 5.95486435,13.9715076 6.13837304,13.9715076 C6.32188174,13.9715076 6.47052522,13.8237053 6.47052522,13.641411 C6.47052522,13.4591168 6.32188174,13.3113145 6.13837304,13.3113145" id="Fill-263" fill="#231B3B"></path>
                    <path d="M7.06383652,11.8832478 C6.88032783,11.8832478 6.73154087,12.0309076 6.73154087,12.2132018 C6.73154087,12.3956386 6.88032783,12.5432984 7.06383652,12.5432984 C7.24734522,12.5432984 7.3959887,12.3956386 7.3959887,12.2132018 C7.3959887,12.0309076 7.24734522,11.8832478 7.06383652,11.8832478" id="Fill-265" fill="#231B3B"></path>
                    <path d="M8.84961,12.2459692 C8.6661013,12.2459692 8.51745783,12.3937715 8.51745783,12.5760657 C8.51745783,12.75836 8.6661013,12.9061623 8.84961,12.9061623 C9.0331187,12.9061623 9.18190565,12.75836 9.18190565,12.5760657 C9.18190565,12.3937715 9.0331187,12.2459692 8.84961,12.2459692" id="Fill-267" fill="#231B3B"></path>
                    <path d="M9.96171,10.9668308 C9.7782013,10.9668308 9.62955783,11.1146331 9.62955783,11.2967848 C9.62955783,11.4792216 9.7782013,11.6268814 9.96171,11.6268814 C10.1452187,11.6268814 10.2938622,11.4792216 10.2938622,11.2967848 C10.2938622,11.1146331 10.1452187,10.9668308 9.96171,10.9668308" id="Fill-269" fill="#231B3B"></path>
                    <path d="M10.5854961,12.4862156 C10.4019874,12.4862156 10.2533439,12.6340179 10.2533439,12.8163122 C10.2533439,12.9986064 10.4019874,13.1464087 10.5854961,13.1464087 C10.7690048,13.1464087 10.9176483,12.9986064 10.9176483,12.8163122 C10.9176483,12.6340179 10.7690048,12.4862156 10.5854961,12.4862156" id="Fill-271" fill="#231B3B"></path>
                    <path d="M11.2265283,14.0033628 C11.0430196,14.0033628 10.8943761,14.1511651 10.8943761,14.3333168 C10.8943761,14.5157536 11.0430196,14.6634133 11.2265283,14.6634133 C11.410037,14.6634133 11.5588239,14.5157536 11.5588239,14.3333168 C11.5588239,14.1511651 11.410037,14.0033628 11.2265283,14.0033628" id="Fill-273" fill="#231B3B"></path>
                    <path d="M10.2013043,15.3100662 C10.0177957,15.3100662 9.86915217,15.4578685 9.86915217,15.6401628 C9.86915217,15.822457 10.0177957,15.9702593 10.2013043,15.9702593 C10.384813,15.9702593 10.5336,15.822457 10.5336,15.6401628 C10.5336,15.4578685 10.384813,15.3100662 10.2013043,15.3100662" id="Fill-275" fill="#231B3B"></path>
                    <path d="M11.8562113,15.5471057 C11.6727026,15.5471057 11.5239157,15.694908 11.5239157,15.8770598 C11.5239157,16.0594966 11.6727026,16.2071563 11.8562113,16.2071563 C12.03972,16.2071563 12.1883635,16.0594966 12.1883635,15.8770598 C12.1883635,15.694908 12.03972,15.5471057 11.8562113,15.5471057" id="Fill-277" fill="#231B3B"></path>
                    <path d="M10.86987,16.8596386 C10.6863613,16.8596386 10.5377178,17.0074409 10.5377178,17.1895926 C10.5377178,17.3720294 10.6863613,17.5198317 10.86987,17.5198317 C11.0533787,17.5198317 11.2020222,17.3720294 11.2020222,17.1895926 C11.2020222,17.0074409 11.0533787,16.8596386 10.86987,16.8596386" id="Fill-279" fill="#231B3B"></path>
                    <path d="M9.23912478,16.6508625 C9.05561609,16.6508625 8.90697261,16.7986648 8.90697261,16.9808166 C8.90697261,17.1632533 9.05561609,17.3110556 9.23912478,17.3110556 C9.42263348,17.3110556 9.57127696,17.1632533 9.57127696,16.9808166 C9.57127696,16.7986648 9.42263348,16.6508625 9.23912478,16.6508625" id="Fill-281" fill="#231B3B"></path>
                    <path d="M7.62542478,16.4873108 C7.44191609,16.4873108 7.29327261,16.6349706 7.29327261,16.8172648 C7.29327261,16.9995591 7.44191609,17.1473614 7.62542478,17.1473614 C7.80893348,17.1473614 7.95757696,16.9995591 7.95757696,16.8172648 C7.95757696,16.6349706 7.80893348,16.4873108 7.62542478,16.4873108" id="Fill-283" fill="#231B3B"></path>
                    <path d="M8.54093087,15.0858257 C8.35742217,15.0858257 8.2087787,15.233628 8.2087787,15.4157798 C8.2087787,15.5982166 8.35742217,15.7458763 8.54093087,15.7458763 C8.72443957,15.7458763 8.87322652,15.5982166 8.87322652,15.4157798 C8.87322652,15.233628 8.72443957,15.0858257 8.54093087,15.0858257" id="Fill-285" fill="#231B3B"></path>
                    <path d="M9.52714304,13.7710552 C9.34363435,13.7710552 9.19499087,13.9187149 9.19499087,14.1010092 C9.19499087,14.283446 9.34363435,14.4311057 9.52714304,14.4311057 C9.71065174,14.4311057 9.85929522,14.283446 9.85929522,14.1010092 C9.85929522,13.9187149 9.71065174,13.7710552 9.52714304,13.7710552" id="Fill-287" fill="#231B3B"></path>
                    <path d="M7.81450043,13.5004786 C7.63099174,13.5004786 7.48234826,13.6481384 7.48234826,13.8304326 C7.48234826,14.0127269 7.63099174,14.1605292 7.81450043,14.1605292 C7.99800913,14.1605292 8.14665261,14.0127269 8.14665261,13.8304326 C8.14665261,13.6481384 7.99800913,13.5004786 7.81450043,13.5004786" id="Fill-289" fill="#231B3B"></path>
                    <path d="M6.90368609,14.9046005 C6.72017739,14.9046005 6.57153391,15.0524028 6.57153391,15.234697 C6.57153391,15.4169913 6.72017739,15.5647936 6.90368609,15.5647936 C7.08719478,15.5647936 7.23598174,15.4169913 7.23598174,15.234697 C7.23598174,15.0524028 7.08719478,14.9046005 6.90368609,14.9046005" id="Fill-291" fill="#231B3B"></path>
                    <path d="M6.02733522,16.3907191 C5.84382652,16.3907191 5.69503957,16.5385214 5.69503957,16.7206731 C5.69503957,16.9031099 5.84382652,17.0509122 6.02733522,17.0509122 C6.21084391,17.0509122 6.35948739,16.9031099 6.35948739,16.7206731 C6.35948739,16.5385214 6.21084391,16.3907191 6.02733522,16.3907191" id="Fill-293" fill="#231B3B"></path>
                    <path d="M4.4051413,16.4078368 C4.22163261,16.4078368 4.07298913,16.5554966 4.07298913,16.7377908 C4.07298913,16.9200851 4.22163261,17.0678874 4.4051413,17.0678874 C4.58865,17.0678874 4.73729348,16.9200851 4.73729348,16.7377908 C4.73729348,16.5554966 4.58865,16.4078368 4.4051413,16.4078368" id="Fill-295" fill="#231B3B"></path>
                    <path d="M5.26812,14.8535182 C5.0846113,14.8535182 4.93596783,15.0011779 4.93596783,15.1834722 C4.93596783,15.3657664 5.0846113,15.5135687 5.26812,15.5135687 C5.4516287,15.5135687 5.60041565,15.3657664 5.60041565,15.1834722 C5.60041565,15.0011779 5.4516287,14.8535182 5.26812,14.8535182" id="Fill-297" fill="#231B3B"></path>
                    <path d="M3.62091783,14.9284028 C3.44300478,14.9284028 3.29866565,15.0717867 3.29866565,15.2485223 C3.29866565,15.4254005 3.44300478,15.5686418 3.62091783,15.5686418 C3.79897435,15.5686418 3.94317,15.4254005 3.94317,15.2485223 C3.94317,15.0717867 3.79897435,14.9284028 3.62091783,14.9284028" id="Fill-299" fill="#231B3B"></path>
                    <path d="M2.7390287,16.443469 C2.55695478,16.443469 2.40945913,16.5899885 2.40945913,16.7707149 C2.40945913,16.9514414 2.55695478,17.0981034 2.7390287,17.0981034 C2.92095913,17.0981034 3.06845478,16.9514414 3.06845478,16.7707149 C3.06845478,16.5899885 2.92095913,16.443469 2.7390287,16.443469" id="Fill-301" fill="#231B3B"></path>
                    <path d="M3.4752013,17.9256823 C3.29169261,17.9256823 3.14304913,18.0734846 3.14304913,18.2556363 C3.14304913,18.4380731 3.29169261,18.5857329 3.4752013,18.5857329 C3.65871,18.5857329 3.80749696,18.4380731 3.80749696,18.2556363 C3.80749696,18.0734846 3.65871,17.9256823 3.4752013,17.9256823" id="Fill-303" fill="#231B3B"></path>
                    <path d="M1.84530261,17.9770497 C1.66279826,17.9770497 1.51487217,18.1238543 1.51487217,18.3052933 C1.51487217,18.4864474 1.66279826,18.6333945 1.84530261,18.6333945 C2.02766348,18.6333945 2.17573304,18.4864474 2.17573304,18.3052933 C2.17573304,18.1238543 2.02766348,17.9770497 1.84530261,17.9770497" id="Fill-305" fill="#231B3B"></path>
                    <path d="M2.48366609,19.4318405 C2.30015739,19.4318405 2.15151391,19.5795002 2.15151391,19.7617945 C2.15151391,19.9440887 2.30015739,20.091891 2.48366609,20.091891 C2.66717478,20.091891 2.81596174,19.9440887 2.81596174,19.7617945 C2.81596174,19.5795002 2.66717478,19.4318405 2.48366609,19.4318405" id="Fill-307" fill="#231B3B"></path>
                    <path d="M3.28771826,20.8746731 C3.10420957,20.8746731 2.95556609,21.0224754 2.95556609,21.2046271 C2.95556609,21.3870639 3.10420957,21.5347237 3.28771826,21.5347237 C3.47122696,21.5347237 3.61987043,21.3870639 3.61987043,21.2046271 C3.61987043,21.0224754 3.47122696,20.8746731 3.28771826,20.8746731" id="Fill-309" fill="#231B3B"></path>
                    <path d="M1.60128913,20.9070984 C1.41778043,20.9070984 1.26899348,21.0547582 1.26899348,21.2370524 C1.26899348,21.4193467 1.41778043,21.567149 1.60128913,21.567149 C1.78479783,21.567149 1.9334413,21.4193467 1.9334413,21.2370524 C1.9334413,21.0547582 1.78479783,20.9070984 1.60128913,20.9070984" id="Fill-311" fill="#231B3B"></path>
                    <path d="M0.786031304,19.5012947 C0.612135652,19.5012947 0.471096522,19.6412579 0.471096522,19.8141453 C0.471096522,19.9870326 0.612135652,20.1271384 0.786031304,20.1271384 C0.959926957,20.1271384 1.10110957,19.9870326 1.10110957,19.8141453 C1.10110957,19.6412579 0.959926957,19.5012947 0.786031304,19.5012947" id="Fill-313" fill="#231B3B"></path>
                    <g id="Group-317" transform="translate(0.000000, 21.078717)">
                        <mask id="mask-6" fill="white">
                            <use xlink:href="#path-5"></use>
                        </mask>
                        <g id="Clip-316"></g>
                        <path d="M0.253597826,0.372470345 C0.253597826,0.220392184 0.144697826,0.0936841379 -7.17391304e-05,0.0648933333 L-7.17391304e-05,0.680047356 C0.144697826,0.65139908 0.253597826,0.524548506 0.253597826,0.372470345" id="Fill-315" fill="#231B3B" mask="url(#mask-6)"></path>
                    </g>
                </g>
                <g id="Group-3-Copy-2" opacity="0.400000006" transform="translate(24.275957, 6.993486) rotate(112.000000) translate(-24.275957, -6.993486) translate(20.775957, 3.993486)">
                    <mask id="mask-8" fill="white">
                        <use xlink:href="#path-7"></use>
                    </mask>
                    <g id="Clip-2"></g>
                    <path d="M1.00502913,5.04543216 L3.28237219,1.1480291 L5.56003421,5.04543216 L1.00502913,5.04543216 Z M3.60037093,0.2395384 C3.46991809,0.0151730237 3.09482629,0.0151730237 2.96405449,0.2395384 L0.0497570753,5.22725635 C-0.0165856918,5.33943904 -0.0165856918,5.47840692 0.0497570753,5.5905896 C0.11482402,5.70277229 0.236346108,5.77241379 0.367755819,5.77241379 L6.19730752,5.77241379 C6.32871723,5.77241379 6.44992036,5.70277229 6.51530626,5.5905896 C6.58133007,5.47840692 6.58133007,5.33943904 6.51530626,5.22725635 L3.60037093,0.2395384 Z" id="Fill-1" fill="#231F20" mask="url(#mask-8)"></path>
                </g>
            </g>
        </g>
    </g>
</svg>